<?xml version="1.0" encoding="UTF-8" standalone="no"?>
<!-- Created with Inkscape (http://www.inkscape.org/) -->

<svg
   width="125"
   height="98"
   viewBox="0 0 33.072915 25.929166"
   version="1.1"
   id="svg1"
   xml:space="preserve"
   xmlns:inkscape="http://www.inkscape.org/namespaces/inkscape"
   xmlns:sodipodi="http://sodipodi.sourceforge.net/DTD/sodipodi-0.dtd"
   xmlns="http://www.w3.org/2000/svg"
   xmlns:svg="http://www.w3.org/2000/svg"><sodipodi:namedview
     id="namedview1"
     pagecolor="#ffffff"
     bordercolor="#000000"
     borderopacity="0.25"
     inkscape:showpageshadow="2"
     inkscape:pageopacity="0.0"
     inkscape:pagecheckerboard="0"
     inkscape:deskcolor="#d1d1d1"
     inkscape:document-units="mm" /><defs
     id="defs1"><style
       id="style1">
      .cls-1 {
        fill: #333;
      }

      .cls-1, .cls-2 {
        stroke-width: 0px;
      }

      .cls-2 {
        fill: #74c7d3;
      }
    </style></defs><g
     inkscape:label="Layer 1"
     inkscape:groupmode="layer"
     id="layer1"><g
       id="g22"
       transform="matrix(0.12799407,0,0,0.12799407,5.838966,5.8922549)"><path
         class="cls-2"
         d="M 0,0 V 33.93 H 33.93 V 0 Z M 26.62,11.27 H 20.43 V 28.38 H 13.51 V 11.27 H 7.32 V 6.46 h 19.3 z"
         id="path1" /><g
         id="g7"><path
           class="cls-2"
           d="m 55.15,24.17 c 0.23,0 0.65,-0.03 1.27,-0.08 L 57,28.05 c -1.97,0.92 -4.54,1.38 -7.69,1.38 -2.95,0 -5.21,-0.74 -6.79,-2.23 -1.58,-1.49 -2.37,-3.73 -2.37,-6.73 0,-1.54 0.2,-3.02 0.6,-4.46 0.4,-1.44 0.85,-2.44 1.37,-3 0.54,-0.56 1.54,-1.05 3,-1.46 1.46,-0.41 2.91,-0.62 4.35,-0.62 2.31,0 4.04,0.41 5.19,1.23 1.15,0.82 1.91,1.95 2.27,3.4 0.36,1.45 0.54,3.39 0.54,5.83 -1.74,0.1 -3.45,0.15 -5.11,0.15 H 46.9 c 0,0.82 0.17,1.44 0.52,1.85 0.35,0.41 0.84,0.67 1.48,0.79 0.64,0.12 1.54,0.17 2.69,0.17 0.64,0 1.83,-0.06 3.58,-0.19 z m -8.23,-7.65 c -0.08,0.59 -0.13,1.26 -0.15,2 h 2 c 1.2,0 2.08,-0.01 2.62,-0.04 0,-1.23 -0.17,-2.1 -0.52,-2.61 -0.35,-0.51 -0.94,-0.77 -1.79,-0.77 -0.69,0 -1.3,0.14 -1.81,0.42 -0.15,0.08 -0.27,0.41 -0.35,1 z"
           id="path2" /><path
           class="cls-2"
           d="m 70.31,28.98 -0.62,-2.42 c -1.18,1.92 -2.82,2.88 -4.92,2.88 -1.72,0 -3.12,-0.48 -4.21,-1.44 -1.09,-0.96 -1.63,-2.31 -1.63,-4.06 0,-1.08 0.31,-2.02 0.94,-2.83 0.63,-0.81 1.49,-1.38 2.6,-1.71 1.44,-0.41 3.65,-0.64 6.65,-0.69 0,-1.69 -0.08,-2.59 -0.23,-2.69 -0.13,-0.1 -0.54,-0.15 -1.23,-0.15 -0.44,0 -1.04,0.03 -1.81,0.08 -1.23,0.05 -2.9,0.19 -5,0.42 -0.21,-1.38 -0.36,-2.87 -0.46,-4.46 1.36,-0.28 2.78,-0.52 4.27,-0.71 1.49,-0.19 2.82,-0.29 4,-0.29 2.05,0 3.59,0.34 4.61,1.02 1.02,0.68 1.69,1.57 2,2.67 0.31,1.1 0.45,2.5 0.42,4.19 l -0.04,5.65 0.11,4.54 H 70.3 Z M 69.12,24.75 V 21.9 h -0.31 c -1.9,0 -2.95,0.1 -3.15,0.31 -0.13,0.13 -0.22,0.32 -0.29,0.58 -0.06,0.26 -0.1,0.5 -0.1,0.73 0,0.62 0.14,1.04 0.42,1.27 0.28,0.23 0.72,0.35 1.31,0.35 0.67,0 1.37,-0.13 2.11,-0.38 z"
           id="path3" /><path
           class="cls-2"
           d="m 93.53,28.44 c -2.08,0.69 -4.4,1.04 -6.96,1.04 -2.87,0 -5.02,-0.72 -6.44,-2.17 C 78.71,25.86 78,23.6 78,20.52 c 0,-1.51 0.2,-3.01 0.61,-4.48 0.41,-1.47 0.85,-2.47 1.31,-2.98 0.54,-0.59 1.6,-1.09 3.17,-1.5 1.58,-0.41 3.21,-0.62 4.9,-0.62 1.69,0 3.55,0.15 5.35,0.46 -0.05,0.64 -0.14,1.39 -0.25,2.25 -0.12,0.86 -0.24,1.62 -0.37,2.29 -1.59,-0.1 -3.09,-0.15 -4.5,-0.15 -1.41,0 -2.27,0.08 -2.65,0.23 -0.21,0.08 -0.39,0.6 -0.56,1.58 -0.17,0.98 -0.25,1.88 -0.25,2.73 0,1.13 0.16,1.99 0.48,2.6 0.32,0.6 0.83,1.02 1.52,1.25 0.69,0.23 1.63,0.35 2.81,0.35 0.51,0 1.64,-0.05 3.38,-0.15 l 0.58,4.08 z"
           id="path4" /><path
           class="cls-2"
           d="m 113.35,14.52 c 0.11,1.13 0.17,2.85 0.17,5.15 v 9.31 h -6.58 V 18.23 c 0,-0.91 -0.06,-1.47 -0.19,-1.67 -0.08,-0.1 -0.26,-0.18 -0.56,-0.23 -0.3,-0.05 -0.64,-0.08 -1.02,-0.08 l -0.65,0.04 c -0.72,0.03 -1.46,0.19 -2.23,0.5 V 28.98 H 95.71 V 5.9 l 6.58,-0.27 v 4.5 c 0,1.85 -0.06,3.08 -0.19,3.69 l 0.04,0.04 c 1.74,-1.97 3.83,-2.96 6.27,-2.96 0.92,0 1.79,0.13 2.6,0.38 0.81,0.26 1.42,0.63 1.83,1.11 0.23,0.28 0.4,0.99 0.52,2.12 z"
           id="path5" /><path
           class="cls-2"
           d="m 130.87,24.17 c 0.23,0 0.65,-0.03 1.27,-0.08 l 0.58,3.96 c -1.97,0.92 -4.54,1.38 -7.69,1.38 -2.95,0 -5.21,-0.74 -6.79,-2.23 -1.58,-1.49 -2.37,-3.73 -2.37,-6.73 0,-1.54 0.2,-3.02 0.6,-4.46 0.4,-1.44 0.85,-2.44 1.37,-3 0.54,-0.56 1.54,-1.05 3,-1.46 1.46,-0.41 2.91,-0.62 4.35,-0.62 2.31,0 4.04,0.41 5.19,1.23 1.15,0.82 1.91,1.95 2.27,3.4 0.36,1.45 0.54,3.39 0.54,5.83 -1.74,0.1 -3.45,0.15 -5.11,0.15 h -5.46 c 0,0.82 0.17,1.44 0.52,1.85 0.35,0.41 0.84,0.67 1.48,0.79 0.64,0.12 1.54,0.17 2.69,0.17 0.64,0 1.83,-0.06 3.58,-0.19 z m -8.23,-7.65 c -0.08,0.59 -0.13,1.26 -0.15,2 h 2 c 1.2,0 2.08,-0.01 2.62,-0.04 0,-1.23 -0.17,-2.1 -0.52,-2.61 -0.35,-0.51 -0.94,-0.77 -1.79,-0.77 -0.69,0 -1.3,0.14 -1.81,0.42 -0.15,0.08 -0.27,0.41 -0.35,1 z"
           id="path6" /><path
           class="cls-2"
           d="m 147.5,11.02 c 0.37,0.08 0.65,0.17 0.83,0.27 0,0.56 -0.06,1.49 -0.19,2.79 -0.13,1.29 -0.24,2.21 -0.35,2.75 -0.26,-0.03 -0.73,-0.04 -1.42,-0.04 -1.62,0 -3.05,0.09 -4.31,0.27 v 11.92 h -6.58 V 11.29 h 5.5 l 0.77,2.85 h 0.04 c 0.74,-0.97 1.54,-1.76 2.38,-2.35 0.85,-0.59 1.6,-0.88 2.27,-0.88 0.33,0 0.69,0.04 1.06,0.12 z"
           id="path7" /></g><g
         id="g9"><path
           class="cls-1"
           d="m 15.56,52.94 c -0.28,0.21 -0.51,0.79 -0.67,1.75 -0.17,0.96 -0.25,1.97 -0.25,3.02 0,1.56 0.24,2.6 0.71,3.11 0.47,0.51 1.14,0.77 1.98,0.77 0.69,0 1.41,-0.12 2.15,-0.35 V 52.9 c -0.74,-0.1 -1.56,-0.15 -2.46,-0.15 -0.77,0 -1.26,0.06 -1.46,0.19 z"
           id="path8" /><path
           class="cls-1"
           d="M 0,38.47 V 72.4 H 33.93 V 38.47 Z M 26.06,66.44 H 20.64 L 20.1,63.48 c -0.51,1 -1.27,1.79 -2.27,2.38 -1,0.59 -2.13,0.88 -3.38,0.88 -2,0 -3.6,-0.72 -4.79,-2.15 C 8.47,63.15 7.87,61 7.87,58.13 c 0,-2.18 0.26,-3.97 0.77,-5.38 0.51,-1.41 1.11,-2.42 1.81,-3.04 0.44,-0.38 1.33,-0.7 2.67,-0.96 1.35,-0.26 2.54,-0.38 3.6,-0.38 0.92,0 1.87,0.09 2.85,0.27 -0.08,-1.23 -0.12,-1.91 -0.12,-2.04 v -3.23 l 6.61,-0.27 z"
           id="path9" /></g><g
         id="g15"><path
           class="cls-1"
           d="m 40.16,48.75 h 6.58 v 17.69 h -6.58 z m 1.06,-3.08 c -0.63,-0.59 -0.94,-1.29 -0.94,-2.11 0,-0.82 0.31,-1.52 0.94,-2.12 0.63,-0.59 1.38,-0.88 2.25,-0.88 0.87,0 1.62,0.29 2.23,0.88 0.62,0.59 0.92,1.29 0.92,2.12 0,0.83 -0.31,1.53 -0.92,2.11 -0.61,0.59 -1.36,0.88 -2.23,0.88 -0.87,0 -1.62,-0.29 -2.25,-0.88 z"
           id="path10" /><path
           class="cls-1"
           d="m 63,48.69 c 1.31,0.17 2.83,0.39 4.58,0.67 v 15.3 c 0,3.67 -1.22,6.51 -3.65,8.54 -0.31,0.26 -1,0.47 -2.08,0.65 -1.08,0.18 -2.29,0.27 -3.65,0.27 -2.95,0 -5.28,-0.38 -7,-1.15 -0.03,-0.56 0.02,-1.31 0.13,-2.23 0.11,-0.92 0.24,-1.65 0.37,-2.19 1.85,0.28 3.65,0.42 5.42,0.42 0.9,0 1.66,-0.04 2.29,-0.13 0.63,-0.09 1.02,-0.22 1.17,-0.4 0.21,-0.21 0.36,-0.97 0.46,-2.31 0.03,-0.36 0.04,-0.88 0.04,-1.58 v -0.96 c -0.64,0.95 -1.46,1.63 -2.46,2.04 -1,0.41 -1.9,0.62 -2.69,0.62 -2.15,0 -3.78,-0.71 -4.88,-2.12 -1.1,-1.41 -1.65,-3.47 -1.65,-6.19 0,-1.79 0.25,-3.48 0.75,-5.06 0.5,-1.58 1.19,-2.67 2.06,-3.29 0.56,-0.38 1.48,-0.67 2.75,-0.87 1.27,-0.19 2.7,-0.29 4.29,-0.29 1.2,0 2.46,0.08 3.77,0.25 z m -2,12.29 v -8.04 c -0.28,-0.05 -0.71,-0.1 -1.27,-0.15 -0.26,-0.03 -0.64,-0.04 -1.15,-0.04 -0.79,0 -1.29,0.08 -1.5,0.23 -0.28,0.21 -0.51,0.78 -0.67,1.71 -0.17,0.94 -0.25,1.92 -0.25,2.94 0,1.41 0.16,2.4 0.48,2.96 0.32,0.56 0.92,0.85 1.79,0.85 0.95,0 1.81,-0.15 2.58,-0.46 z"
           id="path11" /><path
           class="cls-1"
           d="m 70.8,48.75 h 6.58 V 66.44 H 70.8 Z m 1.06,-3.08 c -0.63,-0.59 -0.94,-1.29 -0.94,-2.11 0,-0.82 0.31,-1.52 0.94,-2.12 0.63,-0.59 1.38,-0.88 2.25,-0.88 0.87,0 1.62,0.29 2.23,0.88 0.62,0.59 0.92,1.29 0.92,2.12 0,0.83 -0.31,1.53 -0.92,2.11 -0.61,0.59 -1.36,0.88 -2.23,0.88 -0.87,0 -1.62,-0.29 -2.25,-0.88 z"
           id="path12" /><path
           class="cls-1"
           d="m 88.8,59.17 c 0,0.46 0.01,0.94 0.04,1.44 0.03,0.5 0.1,0.81 0.23,0.94 0.18,0.18 0.81,0.27 1.88,0.27 l 1.31,-0.04 c 0.23,1.23 0.35,2.65 0.35,4.27 -0.49,0.18 -1.2,0.35 -2.13,0.5 -0.94,0.15 -1.83,0.23 -2.67,0.23 -1.77,0 -3.13,-0.39 -4.1,-1.17 -0.96,-0.78 -1.44,-1.99 -1.44,-3.63 v -9.46 h -2.88 v -3.5 l 2.88,-0.27 1.73,-4.23 4.81,-0.27 v 4.5 h 4.08 v 3.77 h -4.08 v 6.65 z"
           id="path13" /><path
           class="cls-1"
           d="m 105.37,66.44 -0.62,-2.42 c -1.18,1.92 -2.82,2.88 -4.92,2.88 -1.72,0 -3.12,-0.48 -4.21,-1.44 -1.09,-0.96 -1.63,-2.31 -1.63,-4.06 0,-1.08 0.31,-2.02 0.94,-2.83 0.63,-0.81 1.49,-1.38 2.6,-1.71 1.44,-0.41 3.65,-0.64 6.65,-0.69 0,-1.69 -0.08,-2.59 -0.23,-2.69 -0.13,-0.1 -0.54,-0.15 -1.23,-0.15 -0.44,0 -1.04,0.03 -1.81,0.08 -1.23,0.05 -2.9,0.19 -5,0.42 -0.21,-1.38 -0.36,-2.87 -0.46,-4.46 1.36,-0.28 2.78,-0.52 4.27,-0.71 1.49,-0.19 2.82,-0.29 4,-0.29 2.05,0 3.59,0.34 4.61,1.02 1.02,0.68 1.69,1.57 2,2.67 0.31,1.1 0.45,2.5 0.42,4.19 l -0.04,5.65 0.11,4.54 h -5.46 z m -1.19,-4.23 v -2.85 h -0.31 c -1.9,0 -2.95,0.1 -3.15,0.31 -0.13,0.13 -0.22,0.32 -0.29,0.58 -0.06,0.26 -0.1,0.5 -0.1,0.73 0,0.62 0.14,1.04 0.42,1.27 0.28,0.23 0.72,0.35 1.31,0.35 0.67,0 1.37,-0.13 2.11,-0.38 z"
           id="path14" /><path
           class="cls-1"
           d="m 113.83,43.37 6.58,-0.27 v 23.34 h -6.58 z"
           id="path15" /></g><path
         class="cls-2"
         d="m 0,76.94 v 33.93 H 33.93 V 76.94 Z m 20.23,22.83 h -6.38 l -1.15,4.81 H 5.62 L 12.7,82.66 h 9.04 l 6.77,21.92 H 21.4 L 20.25,99.77 Z M 17,87.39 14.73,95.5 h 4.58 l -2.15,-8.11 h -0.15 z"
         id="path16" /><g
         id="g21"><path
           class="cls-2"
           d="m 53.77,86.23 c 1.31,0.17 2.83,0.39 4.58,0.67 v 15.3 c 0,3.67 -1.22,6.51 -3.65,8.54 -0.31,0.26 -1,0.47 -2.08,0.65 -1.08,0.18 -2.29,0.27 -3.65,0.27 -2.95,0 -5.28,-0.38 -7,-1.15 -0.03,-0.56 0.02,-1.31 0.13,-2.23 0.11,-0.92 0.24,-1.65 0.37,-2.19 1.85,0.28 3.65,0.42 5.42,0.42 0.9,0 1.66,-0.04 2.29,-0.13 0.63,-0.09 1.02,-0.22 1.17,-0.4 0.21,-0.21 0.36,-0.97 0.46,-2.31 0.03,-0.36 0.04,-0.88 0.04,-1.58 v -0.96 c -0.64,0.95 -1.46,1.63 -2.46,2.04 -1,0.41 -1.9,0.62 -2.69,0.62 -2.15,0 -3.78,-0.71 -4.88,-2.12 -1.1,-1.41 -1.65,-3.47 -1.65,-6.19 0,-1.79 0.25,-3.48 0.75,-5.06 0.5,-1.58 1.19,-2.67 2.06,-3.29 0.56,-0.38 1.48,-0.67 2.75,-0.87 1.27,-0.19 2.7,-0.29 4.29,-0.29 1.2,0 2.46,0.08 3.77,0.25 z m -2,12.29 v -8.04 c -0.28,-0.05 -0.71,-0.1 -1.27,-0.15 -0.26,-0.03 -0.64,-0.04 -1.15,-0.04 -0.79,0 -1.29,0.08 -1.5,0.23 -0.28,0.21 -0.51,0.78 -0.67,1.71 -0.17,0.94 -0.25,1.92 -0.25,2.94 0,1.41 0.16,2.4 0.48,2.96 0.32,0.56 0.92,0.85 1.79,0.85 0.95,0 1.81,-0.15 2.58,-0.46 z"
           id="path17" /><path
           class="cls-2"
           d="m 75.76,99.17 c 0.23,0 0.65,-0.03 1.27,-0.08 l 0.58,3.96 c -1.97,0.92 -4.54,1.38 -7.69,1.38 -2.95,0 -5.21,-0.74 -6.79,-2.23 -1.58,-1.49 -2.37,-3.73 -2.37,-6.73 0,-1.54 0.2,-3.02 0.6,-4.46 0.4,-1.44 0.85,-2.44 1.37,-3 0.54,-0.56 1.54,-1.05 3,-1.46 1.46,-0.41 2.91,-0.62 4.35,-0.62 2.31,0 4.04,0.41 5.19,1.23 1.15,0.82 1.91,1.95 2.27,3.4 0.36,1.45 0.54,3.39 0.54,5.83 -1.74,0.1 -3.45,0.15 -5.11,0.15 h -5.46 c 0,0.82 0.17,1.44 0.52,1.85 0.35,0.41 0.84,0.67 1.48,0.79 0.64,0.12 1.54,0.17 2.69,0.17 0.64,0 1.83,-0.06 3.58,-0.19 z m -8.23,-7.65 c -0.08,0.59 -0.13,1.26 -0.15,2 h 2 c 1.2,0 2.08,-0.01 2.62,-0.04 0,-1.23 -0.17,-2.1 -0.52,-2.61 -0.35,-0.51 -0.94,-0.77 -1.79,-0.77 -0.69,0 -1.3,0.14 -1.81,0.42 -0.15,0.08 -0.27,0.41 -0.35,1 z"
           id="path18" /><path
           class="cls-2"
           d="m 98.01,89.51 c 0.11,1.13 0.17,2.85 0.17,5.15 v 9.31 H 91.6 V 93.16 c 0,-0.82 -0.06,-1.33 -0.19,-1.54 -0.21,-0.26 -0.68,-0.38 -1.42,-0.38 -0.36,0 -0.63,0.01 -0.81,0.04 -0.72,0.03 -1.46,0.19 -2.23,0.5 v 12.19 H 80.37 V 86.28 h 5.34 l 0.73,2.96 c 1.85,-2.23 4.05,-3.35 6.61,-3.35 0.92,0 1.79,0.13 2.6,0.38 0.81,0.26 1.42,0.63 1.83,1.11 0.23,0.28 0.4,0.99 0.52,2.12 z"
           id="path19" /><path
           class="cls-2"
           d="m 116.1,103.43 c -2.08,0.69 -4.4,1.04 -6.96,1.04 -2.87,0 -5.02,-0.72 -6.44,-2.17 -1.42,-1.45 -2.13,-3.71 -2.13,-6.79 0,-1.51 0.2,-3.01 0.61,-4.48 0.41,-1.47 0.85,-2.47 1.31,-2.98 0.54,-0.59 1.6,-1.09 3.17,-1.5 1.58,-0.41 3.21,-0.62 4.9,-0.62 1.69,0 3.55,0.15 5.35,0.46 -0.05,0.64 -0.14,1.39 -0.25,2.25 -0.12,0.86 -0.24,1.62 -0.37,2.29 -1.59,-0.1 -3.09,-0.15 -4.5,-0.15 -1.41,0 -2.27,0.08 -2.65,0.23 -0.21,0.08 -0.39,0.6 -0.56,1.58 -0.17,0.98 -0.25,1.88 -0.25,2.73 0,1.13 0.16,1.99 0.48,2.6 0.32,0.6 0.83,1.02 1.52,1.25 0.69,0.23 1.63,0.35 2.81,0.35 0.51,0 1.64,-0.05 3.38,-0.15 l 0.58,4.08 z"
           id="path20" /><path
           class="cls-2"
           d="m 136.6,86.28 -4.61,14.8 c -0.9,2.85 -1.71,4.92 -2.42,6.21 -0.72,1.29 -1.44,2.2 -2.15,2.71 -0.41,0.28 -1.06,0.5 -1.94,0.65 -0.88,0.15 -1.84,0.23 -2.87,0.23 -1.54,0 -2.77,-0.14 -3.69,-0.42 -0.03,-0.62 0,-1.36 0.08,-2.25 0.08,-0.88 0.18,-1.63 0.31,-2.25 1.08,0.05 2.13,0.08 3.15,0.08 0.77,0 1.35,-0.01 1.73,-0.04 0.38,-0.74 0.74,-1.53 1.08,-2.35 l -2.65,-0.15 -5.92,-17.23 h 6.96 l 3.08,12.38 0.04,0.73 h 0.12 l 2.77,-13.11 h 6.96 z"
           id="path21" /></g><path
         class="cls-1"
         d="m 159.42,77.02 -10.34,-10.34 -6.27,6.28 -9.63,-31.25 31.25,9.63 -6.27,6.28 10.34,10.34 -9.07,9.08 z"
         id="path22" /></g></g></svg>
